<svg width="51" height="52" viewBox="0 0 51 52" fill="none" xmlns="http://www.w3.org/2000/svg">
<g clip-path="url(#clip0_101_257)">
<path d="M24.9934 51.0187C21.38 51.0187 18.1209 50.3961 15.2164 49.1508C12.3348 47.9055 9.95628 46.1282 8.08093 43.8187C6.22844 41.4867 5.05062 38.7244 4.54748 35.532L13.1238 34.2414C13.8557 37.1395 15.3537 39.381 17.6178 40.9659C19.9048 42.5508 22.5349 43.3433 25.508 43.3433C27.269 43.3433 28.9271 43.0716 30.4823 42.5282C32.0375 41.9848 33.2953 41.1923 34.2559 40.1508C35.2393 39.1093 35.731 37.8301 35.731 36.3131C35.731 35.6338 35.6167 35.0112 35.388 34.4452C35.1593 33.8565 34.8162 33.3357 34.3588 32.8829C33.9243 32.4301 33.3525 32.0225 32.6435 31.6603C31.9574 31.2754 31.157 30.947 30.2422 30.6754L17.4806 26.9395C16.3828 26.6225 15.1936 26.2037 13.9128 25.6829C12.655 25.1395 11.4543 24.4037 10.3108 23.4754C9.19013 22.5244 8.26389 21.3244 7.53204 19.8754C6.82306 18.4037 6.46858 16.5923 6.46858 14.4414C6.46858 11.2942 7.26903 8.65649 8.86995 6.52819C10.4937 4.37725 12.6664 2.7697 15.388 1.70555C18.1324 0.641398 21.1741 0.120643 24.5132 0.143286C27.898 0.165925 30.9168 0.743284 33.5698 1.87536C36.2227 2.9848 38.4411 4.60366 40.225 6.73196C42.0089 8.86027 43.2667 11.4301 43.9986 14.4414L35.1135 15.9697C34.7476 14.2489 34.0386 12.7886 32.9866 11.5886C31.9574 10.3659 30.6881 9.43762 29.1787 8.80366C27.6921 8.1697 26.1027 7.83008 24.4103 7.78479C22.7636 7.76215 21.2313 8.01121 19.8133 8.53196C18.4183 9.03008 17.2862 9.7546 16.4171 10.7055C15.5709 11.6565 15.1478 12.7659 15.1478 14.0338C15.1478 15.2338 15.5137 16.2188 16.2456 16.9886C16.9774 17.7357 17.8808 18.3357 18.9557 18.7886C20.0535 19.2188 21.1627 19.581 22.2833 19.8754L31.1341 22.3206C32.3462 22.6376 33.707 23.0678 35.2164 23.6112C36.7259 24.1546 38.1781 24.9131 39.5732 25.8867C40.9683 26.8603 42.1118 28.1395 43.0037 29.7244C43.9185 31.3093 44.3759 33.3244 44.3759 35.7697C44.3759 38.3055 43.8385 40.5357 42.7636 42.4603C41.7116 44.3621 40.2822 45.947 38.4754 47.215C36.6687 48.4829 34.5989 49.4338 32.2662 50.0678C29.9563 50.7018 27.532 51.0187 24.9934 51.0187ZM0.686523 49.9999V1.09423H8.13077L25.2148 35.7357L42.2989 1.09423H49.7431V49.9999H42.0244V18.6527L26.8615 49.9999H23.5682L8.43952 18.6527V49.9999H0.686523Z" fill="white"/>
</g>
<defs>
<clipPath id="clip0_101_257">
<rect width="50.5051" height="51.8868" fill="white"/>
</clipPath>
</defs>
</svg>
