<svg width="39" height="40" viewBox="0 0 39 40" fill="none" xmlns="http://www.w3.org/2000/svg">
<path d="M19.075 39.3309C16.3172 39.3309 13.8299 38.8509 11.6132 37.8909C9.41388 36.9309 7.59861 35.5607 6.16733 33.7804C4.75352 31.9825 3.85461 29.8531 3.47061 27.392L10.0161 26.3971C10.5746 28.6313 11.7179 30.3593 13.4459 31.5811C15.1913 32.8029 17.1986 33.4138 19.4677 33.4138C20.8117 33.4138 22.0772 33.2044 23.2641 32.7855C24.451 32.3666 25.411 31.7556 26.1441 30.9527C26.8946 30.1498 27.2699 29.1636 27.2699 27.9942C27.2699 27.4705 27.1826 26.9905 27.0081 26.5542C26.8335 26.1004 26.5717 25.6989 26.2226 25.3498C25.891 25.0007 25.4546 24.6865 24.9135 24.4073C24.3899 24.1105 23.779 23.8575 23.0808 23.648L13.3412 20.768C12.5033 20.5236 11.5957 20.2007 10.6182 19.7993C9.65824 19.3804 8.74188 18.8131 7.86915 18.0975C7.01388 17.3644 6.30697 16.4393 5.74843 15.3222C5.20733 14.1876 4.93679 12.7913 4.93679 11.1331C4.93679 8.70691 5.5477 6.67346 6.76952 5.03273C8.00879 3.37455 9.66697 2.13527 11.7441 1.31491C13.8386 0.494545 16.1601 0.0930908 18.7084 0.110546C21.2917 0.127999 23.5957 0.57309 25.6204 1.44582C27.6452 2.30109 29.3382 3.54909 30.6997 5.18982C32.0612 6.83055 33.0212 8.81164 33.5797 11.1331L26.7986 12.3113C26.5193 10.9847 25.9782 9.85891 25.1753 8.93382C24.3899 7.99128 23.4212 7.27564 22.2692 6.78691C21.1346 6.29818 19.9215 6.03637 18.6299 6.00146C17.3732 5.984 16.2037 6.176 15.1215 6.57746C14.0568 6.96146 13.1928 7.52 12.5295 8.25309C11.8837 8.98618 11.5608 9.84146 11.5608 10.8189C11.5608 11.744 11.8401 12.5033 12.3986 13.0967C12.9572 13.6727 13.6466 14.1353 14.467 14.4844C15.3048 14.816 16.1513 15.0953 17.0066 15.3222L23.7615 17.2073C24.6866 17.4516 25.7252 17.7833 26.8772 18.2022C28.0292 18.6211 29.1375 19.2058 30.2022 19.9564C31.267 20.7069 32.1397 21.6931 32.8204 22.9149C33.5186 24.1367 33.8677 25.6902 33.8677 27.5753C33.8677 29.5302 33.4575 31.2495 32.6371 32.7331C31.8342 34.1993 30.7433 35.4211 29.3644 36.3985C27.9855 37.376 26.4059 38.1091 24.6255 38.5978C22.8626 39.0865 21.0124 39.3309 19.075 39.3309ZM0.523926 38.5455V0.843638H6.20538L19.2439 27.5491L32.2825 0.843638H37.9639V38.5455H32.073V14.3796L20.5006 38.5455H17.9872L6.44101 14.3796V38.5455H0.523926Z" fill="white"/>
</svg>
